<svg width="90" height="37" viewBox="0 0 90 37" fill="none" xmlns="http://www.w3.org/2000/svg">
<g clip-path="url(#clip0_307_327)">
<path d="M24.7109 0H15.3852C11.2645 0.184046 7.89619 1.75185 6.92363 4.98491C6.41651 6.67103 6.13742 8.52283 5.74088 10.2707C3.72493 19.1579 1.93737 28.2901 0.0090332 37H72.6132C78.2262 37 82.0804 35.8795 83.1216 31.671C83.6054 29.7161 84.0689 27.502 84.5319 25.3542C86.3364 16.9799 88.1425 8.60609 89.991 0H24.7109Z" fill="#822124"/>
<path d="M23.9829 13.1498C24.3729 12.896 24.8753 11.7402 24.3014 11.2589C24.1196 11.1066 23.8156 11.0624 23.3915 11.1301C22.9982 11.1929 22.7719 11.3192 22.6182 11.5169C22.3713 11.8348 22.1447 12.7937 22.5272 13.15C22.8999 13.4967 23.7347 13.3111 23.9829 13.1498V13.1498ZM18.433 11.2589C18.1536 12.9717 17.8388 14.6512 17.5231 16.3298C15.4966 16.35 13.4275 16.4242 11.4728 16.2867C11.842 14.6445 12.1068 12.9035 12.4736 11.2589H10.2901C9.50846 15.4481 8.79732 19.7042 7.92456 23.8072H10.1537C10.5033 21.7027 10.8304 19.5764 11.2909 17.5761C13.1915 17.5318 15.4694 17.4548 17.2958 17.6191C16.9192 19.6987 16.4642 21.7037 16.1131 23.8072H18.3422C19.0586 19.5562 19.8131 15.3415 20.7079 11.2589H18.433V11.2589ZM49.9585 14.8688C48.2241 14.207 46.8605 15.3253 46.2283 16.3728C46.3717 15.9068 46.4307 15.361 46.5469 14.8688H44.8182C44.3955 17.9648 43.7727 20.8715 43.1806 23.8072H45.1368C45.411 22.0647 45.5293 19.7157 46.1375 18.0488C46.6236 16.7167 47.8957 15.5819 49.7313 16.201C49.7568 15.7096 49.9057 15.3345 49.9585 14.8688V14.8688ZM51.0501 21.7016C50.8697 21.2615 50.8233 20.535 50.8683 19.9825C50.9694 18.7409 51.4484 17.2292 52.1876 16.5447C53.2077 15.6001 55.2215 15.7565 56.8279 16.2869C56.8775 15.7755 56.9863 15.3193 57.0554 14.8259C54.421 14.4194 51.9213 14.6724 50.5958 15.9862C49.298 17.2724 48.4477 20.2285 49.0488 22.0884C49.7525 24.2649 52.9083 24.3832 55.4632 23.5496C55.5762 23.1121 55.6361 22.6244 55.7361 22.1745C54.3398 22.8595 51.6706 23.2156 51.0501 21.7016V21.7016ZM73.0226 14.9117C71.2937 14.095 69.8543 15.4653 69.2924 16.2867C69.4524 15.8653 69.4616 15.3008 69.6107 14.8686H67.8821C67.416 17.9378 66.8543 20.9166 66.1991 23.8071H68.2008C68.2133 22.6224 68.4597 21.746 68.6554 20.5844C69.0737 18.1035 69.688 15.383 72.75 16.2008C72.8512 15.7813 72.8934 15.3054 73.0226 14.9117ZM21.9813 14.8688C21.9283 14.8759 21.9318 14.9367 21.9357 14.9976C21.5047 18.0426 20.9213 20.9439 20.2981 23.8071H22.2542C22.7242 20.7415 23.2626 17.7409 23.9373 14.8686L21.9813 14.8688V14.8688ZM39.177 14.6969C37.7635 14.7999 36.5688 15.184 35.7197 16.0291C34.6782 17.0655 33.835 19.3569 34.0821 21.4439C34.4346 24.421 38.3586 24.314 41.4971 23.5925C41.5506 23.0699 41.6845 22.6232 41.77 22.1313C40.4772 22.5883 38.2323 23.2262 36.9022 22.4323C35.8982 21.8325 35.8924 20.3142 36.2199 18.9944C38.3293 18.931 40.5217 18.943 42.6341 18.9944C42.768 18.0589 43.1515 17.0391 42.816 16.1152C42.3737 14.8955 40.7893 14.5794 39.177 14.6969ZM41.0421 17.9628H36.4472C36.5928 16.965 37.5431 15.8683 39.0404 15.8142C40.4496 15.7633 41.4586 16.3029 41.0421 17.9628V17.9628ZM31.762 14.8688C30.1063 14.2813 28.0886 14.9826 27.2138 15.6497C27.2169 15.679 27.1929 15.683 27.1671 15.6852C27.182 15.6734 27.1982 15.6615 27.2138 15.6497C27.2136 15.6472 27.2133 15.6448 27.2129 15.6423C27.2275 15.3555 27.3344 15.1556 27.3492 14.8688H25.6661C24.9646 19.277 24.1329 23.562 23.2552 27.8037H25.2112C25.4944 26.1518 25.6813 24.4089 26.0757 22.8618C26.5224 24.489 29.4394 24.1782 30.6703 23.5494C33.2098 22.252 35.1687 16.0775 31.762 14.8688V14.8688ZM30.2153 22.1313C29.1688 23.1784 26.5959 23.1627 26.394 21.4006C26.3062 20.6341 26.6084 19.8303 26.7582 19.0372C26.9092 18.2345 27.0182 17.4643 27.1673 16.7596C28.1981 15.5706 31.2273 15.4269 31.5346 17.4042C31.8012 19.1208 31.0819 21.2641 30.2153 22.1313V22.1313ZM80.301 11.0011C80.1334 12.3897 79.9093 13.7251 79.6189 14.9976C74.8206 13.5628 71.878 16.8978 71.931 21.014C71.9414 21.8101 72.0864 22.5995 72.6131 23.1627C73.5217 24.1328 76.1222 24.3652 77.4355 23.5493C77.6895 23.3914 77.9493 23.1041 78.1176 22.9049C78.2443 22.7549 78.4451 22.3619 78.4817 22.475C78.4124 22.911 78.3093 23.3152 78.2999 23.8071H80.0741C80.4162 19.1737 81.4732 15.2163 82.2576 11.001H80.3012V11.0011H80.301ZM75.9341 22.8188C74.6172 22.8455 73.9625 22.0756 73.9322 20.7991C73.8798 18.5635 74.9179 16.0798 77.0259 15.8571C78.0072 15.7535 78.7179 15.969 79.4369 16.201C78.7767 18.7122 79.015 22.7564 75.9341 22.8188V22.8188ZM59.0567 14.8688C58.9604 15.3794 58.8126 15.8414 58.6928 16.3298C59.8471 16.0563 63.4415 15.218 63.7879 16.6735C63.9029 17.1571 63.7045 17.6708 63.5603 18.0488C60.3102 17.7579 57.6611 18.268 56.9641 20.4552C56.4974 21.9202 57.0163 23.3619 58.0104 23.7644C59.925 24.5393 62.2538 23.6516 63.0599 22.4323C62.9762 22.8543 62.8969 23.281 62.9238 23.8072H64.6067C64.6248 22.2845 64.8593 21.0519 65.1072 19.6817C65.3184 18.5148 65.716 17.3596 65.6531 16.3298C65.5083 13.9712 61.372 14.8055 59.0567 14.8688V14.8688ZM62.2411 22.0883C61.233 23.0205 58.4033 23.2853 58.6928 21.0569C58.933 19.2061 61.0664 18.8128 63.3781 19.08C63.2064 20.0925 63.0092 21.3779 62.2411 22.0883V22.0883Z" fill="white"/>
</g>
<defs>
<clipPath id="clip0_307_327">
<rect width="90" height="37" fill="white"/>
</clipPath>
</defs>
</svg>
